<mxfile host="app.diagrams.net" agent="Mozilla/5.0 (Windows NT 10.0; Win64; x64) AppleWebKit/537.36 (KHTML, like Gecko) Chrome/131.0.0.0 Safari/537.36 Edg/131.0.0.0" version="24.8.6">
  <diagram id="R2lEEEUBdFMjLlhIrx00" name="Page-1">
    <mxGraphModel dx="1237" dy="621" grid="1" gridSize="10" guides="1" tooltips="1" connect="1" arrows="1" fold="1" page="0" pageScale="1" pageWidth="850" pageHeight="1100" math="0" shadow="0" extFonts="Permanent Marker^https://fonts.googleapis.com/css?family=Permanent+Marker">
      <root>
        <mxCell id="0" />
        <mxCell id="1" parent="0" />
        <mxCell id="NB11_DeMqXIJB_BNVGf0-14" value="Profile" style="swimlane;fontStyle=1;childLayout=stackLayout;horizontal=1;startSize=26;horizontalStack=0;resizeParent=1;resizeParentMax=0;resizeLast=0;collapsible=1;marginBottom=0;align=center;fontSize=16;" vertex="1" parent="1">
          <mxGeometry x="40" y="13" width="190" height="130" as="geometry" />
        </mxCell>
        <mxCell id="NB11_DeMqXIJB_BNVGf0-15" value="&lt;h3&gt;&lt;ul&gt;&lt;li&gt;_id: &amp;lt;ObjectId1&amp;gt;,&lt;/li&gt;&lt;/ul&gt;&lt;/h3&gt;" style="text;strokeColor=none;fillColor=none;spacingLeft=4;spacingRight=4;overflow=hidden;rotatable=0;points=[[0,0.5],[1,0.5]];portConstraint=eastwest;fontSize=12;whiteSpace=wrap;html=1;" vertex="1" parent="NB11_DeMqXIJB_BNVGf0-14">
          <mxGeometry y="26" width="190" height="54" as="geometry" />
        </mxCell>
        <mxCell id="NB11_DeMqXIJB_BNVGf0-16" value="&lt;h3&gt;&lt;ul&gt;&lt;li&gt;profileName: String&lt;/li&gt;&lt;/ul&gt;&lt;/h3&gt;" style="text;strokeColor=none;fillColor=none;spacingLeft=4;spacingRight=4;overflow=hidden;rotatable=0;points=[[0,0.5],[1,0.5]];portConstraint=eastwest;fontSize=12;whiteSpace=wrap;html=1;align=left;" vertex="1" parent="NB11_DeMqXIJB_BNVGf0-14">
          <mxGeometry y="80" width="190" height="50" as="geometry" />
        </mxCell>
        <mxCell id="NB11_DeMqXIJB_BNVGf0-18" value="Skill" style="swimlane;fontStyle=1;childLayout=stackLayout;horizontal=1;startSize=26;horizontalStack=0;resizeParent=1;resizeParentMax=0;resizeLast=0;collapsible=1;marginBottom=0;align=center;fontSize=16;" vertex="1" parent="1">
          <mxGeometry x="400" y="13" width="230" height="184" as="geometry" />
        </mxCell>
        <mxCell id="NB11_DeMqXIJB_BNVGf0-19" value="&lt;h3&gt;&lt;ul&gt;&lt;li&gt;_id: &amp;lt;ObjectId2&amp;gt;,&lt;/li&gt;&lt;/ul&gt;&lt;/h3&gt;" style="text;strokeColor=none;fillColor=none;spacingLeft=4;spacingRight=4;overflow=hidden;rotatable=0;points=[[0,0.5],[1,0.5]];portConstraint=eastwest;fontSize=12;whiteSpace=wrap;html=1;" vertex="1" parent="NB11_DeMqXIJB_BNVGf0-18">
          <mxGeometry y="26" width="230" height="54" as="geometry" />
        </mxCell>
        <mxCell id="NB11_DeMqXIJB_BNVGf0-20" value="&lt;h3&gt;&lt;ul&gt;&lt;li&gt;skillName: String&lt;/li&gt;&lt;/ul&gt;&lt;/h3&gt;" style="text;strokeColor=none;fillColor=none;spacingLeft=4;spacingRight=4;overflow=hidden;rotatable=0;points=[[0,0.5],[1,0.5]];portConstraint=eastwest;fontSize=12;whiteSpace=wrap;html=1;" vertex="1" parent="NB11_DeMqXIJB_BNVGf0-18">
          <mxGeometry y="80" width="230" height="50" as="geometry" />
        </mxCell>
        <mxCell id="NB11_DeMqXIJB_BNVGf0-21" value="&lt;h3&gt;&lt;ul&gt;&lt;li&gt;profileId: &amp;lt;ObjectId1&amp;gt;&lt;/li&gt;&lt;/ul&gt;&lt;/h3&gt;" style="text;strokeColor=none;fillColor=none;spacingLeft=4;spacingRight=4;overflow=hidden;rotatable=0;points=[[0,0.5],[1,0.5]];portConstraint=eastwest;fontSize=12;whiteSpace=wrap;html=1;" vertex="1" parent="NB11_DeMqXIJB_BNVGf0-18">
          <mxGeometry y="130" width="230" height="54" as="geometry" />
        </mxCell>
        <mxCell id="NB11_DeMqXIJB_BNVGf0-25" value="" style="edgeStyle=entityRelationEdgeStyle;fontSize=12;html=1;endArrow=ERoneToMany;rounded=0;entryX=0;entryY=0.5;entryDx=0;entryDy=0;fontColor=#99CCFF;" edge="1" parent="1" source="NB11_DeMqXIJB_BNVGf0-15" target="NB11_DeMqXIJB_BNVGf0-20">
          <mxGeometry width="100" height="100" relative="1" as="geometry">
            <mxPoint x="370" y="270" as="sourcePoint" />
            <mxPoint x="470" y="170" as="targetPoint" />
          </mxGeometry>
        </mxCell>
        <mxCell id="NB11_DeMqXIJB_BNVGf0-26" value="1" style="edgeLabel;html=1;align=center;verticalAlign=middle;resizable=0;points=[];fontSize=12;fontColor=#99CCFF;" vertex="1" connectable="0" parent="NB11_DeMqXIJB_BNVGf0-25">
          <mxGeometry x="-0.7221" relative="1" as="geometry">
            <mxPoint as="offset" />
          </mxGeometry>
        </mxCell>
        <mxCell id="NB11_DeMqXIJB_BNVGf0-27" value="to" style="edgeLabel;html=1;align=center;verticalAlign=middle;resizable=0;points=[];fontSize=12;fontColor=#99CCFF;" vertex="1" connectable="0" parent="NB11_DeMqXIJB_BNVGf0-25">
          <mxGeometry x="-0.0366" y="2" relative="1" as="geometry">
            <mxPoint as="offset" />
          </mxGeometry>
        </mxCell>
        <mxCell id="NB11_DeMqXIJB_BNVGf0-28" value="&lt;font style=&quot;font-size: 12px;&quot;&gt;N&lt;/font&gt;" style="edgeLabel;html=1;align=center;verticalAlign=middle;resizable=0;points=[];fontColor=#99CCFF;" vertex="1" connectable="0" parent="NB11_DeMqXIJB_BNVGf0-25">
          <mxGeometry x="0.8031" relative="1" as="geometry">
            <mxPoint as="offset" />
          </mxGeometry>
        </mxCell>
        <mxCell id="NB11_DeMqXIJB_BNVGf0-29" value="Category" style="swimlane;fontStyle=1;childLayout=stackLayout;horizontal=1;startSize=26;horizontalStack=0;resizeParent=1;resizeParentMax=0;resizeLast=0;collapsible=1;marginBottom=0;align=center;fontSize=16;" vertex="1" parent="1">
          <mxGeometry x="400" y="280" width="230" height="200" as="geometry" />
        </mxCell>
        <mxCell id="NB11_DeMqXIJB_BNVGf0-30" value="&lt;h3&gt;&lt;ul&gt;&lt;li&gt;_id: &amp;lt;ObjectId3&amp;gt;,&lt;/li&gt;&lt;/ul&gt;&lt;/h3&gt;" style="text;strokeColor=none;fillColor=none;spacingLeft=4;spacingRight=4;overflow=hidden;rotatable=0;points=[[0,0.5],[1,0.5]];portConstraint=eastwest;fontSize=12;whiteSpace=wrap;html=1;" vertex="1" parent="NB11_DeMqXIJB_BNVGf0-29">
          <mxGeometry y="26" width="230" height="54" as="geometry" />
        </mxCell>
        <mxCell id="NB11_DeMqXIJB_BNVGf0-31" value="&lt;h3&gt;&lt;ul&gt;&lt;li&gt;categoryName: String&lt;/li&gt;&lt;/ul&gt;&lt;/h3&gt;" style="text;strokeColor=none;fillColor=none;spacingLeft=4;spacingRight=4;overflow=hidden;rotatable=0;points=[[0,0.5],[1,0.5]];portConstraint=eastwest;fontSize=12;whiteSpace=wrap;html=1;" vertex="1" parent="NB11_DeMqXIJB_BNVGf0-29">
          <mxGeometry y="80" width="230" height="60" as="geometry" />
        </mxCell>
        <mxCell id="NB11_DeMqXIJB_BNVGf0-32" value="&lt;h3&gt;&lt;ul&gt;&lt;li&gt;skillId: &amp;lt;ObjectId2&amp;gt;&lt;/li&gt;&lt;/ul&gt;&lt;/h3&gt;" style="text;strokeColor=none;fillColor=none;spacingLeft=4;spacingRight=4;overflow=hidden;rotatable=0;points=[[0,0.5],[1,0.5]];portConstraint=eastwest;fontSize=12;whiteSpace=wrap;html=1;" vertex="1" parent="NB11_DeMqXIJB_BNVGf0-29">
          <mxGeometry y="140" width="230" height="60" as="geometry" />
        </mxCell>
        <mxCell id="NB11_DeMqXIJB_BNVGf0-33" value="&lt;font color=&quot;#99ccff&quot;&gt;to&lt;/font&gt;" style="edgeStyle=entityRelationEdgeStyle;fontSize=12;html=1;endArrow=ERzeroToMany;startArrow=ERmandOne;rounded=0;exitX=1;exitY=0.5;exitDx=0;exitDy=0;entryX=1;entryY=0.5;entryDx=0;entryDy=0;" edge="1" parent="1" source="NB11_DeMqXIJB_BNVGf0-19" target="NB11_DeMqXIJB_BNVGf0-32">
          <mxGeometry width="100" height="100" relative="1" as="geometry">
            <mxPoint x="500" y="200" as="sourcePoint" />
            <mxPoint x="340" y="250" as="targetPoint" />
          </mxGeometry>
        </mxCell>
        <mxCell id="NB11_DeMqXIJB_BNVGf0-34" value="&lt;font style=&quot;font-size: 12px;&quot; color=&quot;#99ccff&quot;&gt;N&lt;/font&gt;" style="edgeLabel;html=1;align=center;verticalAlign=middle;resizable=0;points=[];" vertex="1" connectable="0" parent="NB11_DeMqXIJB_BNVGf0-33">
          <mxGeometry x="-0.8816" relative="1" as="geometry">
            <mxPoint as="offset" />
          </mxGeometry>
        </mxCell>
        <mxCell id="NB11_DeMqXIJB_BNVGf0-35" value="&lt;span style=&quot;color: rgb(153, 204, 255); font-size: 12px;&quot;&gt;N&lt;/span&gt;" style="edgeLabel;html=1;align=center;verticalAlign=middle;resizable=0;points=[];" vertex="1" connectable="0" parent="NB11_DeMqXIJB_BNVGf0-33">
          <mxGeometry x="0.8668" y="-1" relative="1" as="geometry">
            <mxPoint as="offset" />
          </mxGeometry>
        </mxCell>
      </root>
    </mxGraphModel>
  </diagram>
</mxfile>
